Coordinates
version=1
nRows=29
nColumns=22
inDegrees=yes

Units are S.I. units (second, meters, Newtons, ...)
If the header above contains a line with 'inDegrees', this indicates whether rotational values are in degrees (yes) or radians (no).

endheader
time	pelvis_tilt	pelvis_list	pelvis_rotation	pelvis_tx	pelvis_ty	pelvis_tz	hip_flexion_r	hip_adduction_r	hip_rotation_r	knee_angle_r	ankle_angle_r	subtalar_angle_r	hip_flexion_l	hip_adduction_l	hip_rotation_l	knee_angle_l	ankle_angle_l	subtalar_angle_l	lumbar_extension	lumbar_bending	lumbar_rotation
      0.01000000	     -2.64242327	     -7.34144064	     11.54228170	      0.08677690	      0.97529713	      0.87875734	      7.11369533	      8.59432534	     -6.66230225	    -15.55717080	     10.20321909	      0.66841245	      4.52897552	     -6.32189184	      7.12812581	     -9.56370214	     11.16533680	     -3.07731638	      3.71712643	      6.39525911	     -5.82945078
      0.02000000	     -2.64278906	     -7.34010658	     11.54245976	      0.08679452	      0.97529439	      0.87877689	      7.11375501	      8.59432039	     -6.66246123	    -15.55734738	     10.20330318	      0.66861897	      4.52877544	     -6.32216149	      7.12809953	     -9.56395141	     11.16503827	     -3.07744888	      3.71689924	      6.39622714	     -5.82954191
      0.03000000	     -2.64112627	     -7.33786032	     11.53978860	      0.08681045	      0.97529370	      0.87876286	      7.11333642	      8.59005678	     -6.66399907	    -15.56264937	     10.20453404	      0.67175789	      4.52711044	     -6.31847076	      7.12830783	     -9.56833921	     11.16140675	     -3.07947614	      3.71491498	      6.40657874	     -5.83115145
      0.04000000	     -2.62958128	     -7.33422512	     11.53790135	      0.08679720	      0.97530087	      0.87879084	      7.11879759	      8.58783019	     -6.67002868	    -15.59398732	     10.21426501	      0.69132474	      4.52587832	     -6.31767175	      7.12530980	     -9.58780047	     11.15188842	     -3.09374348	      3.69361198	      6.41000691	     -5.83236598
      0.05000000	     -2.63094422	     -7.33187824	     11.53604165	      0.08681430	      0.97529871	      0.87879262	      7.11882086	      8.58436324	     -6.67090290	    -15.59365515	     10.21582659	      0.69300450	      4.52603531	     -6.31506692	      7.12516352	     -9.58842155	     11.15272300	     -3.09528332	      3.69267501	      6.41707757	     -5.83207295
      0.06000000	     -2.63179642	     -7.32949411	     11.53169196	      0.08683469	      0.97529559	      0.87879744	      7.11909605	      8.58156311	     -6.67159307	    -15.59552734	     10.21847062	      0.69498457	      4.52608010	     -6.31213784	      7.12548043	     -9.59160576	     11.15380798	     -3.09746880	      3.69119007	      6.42439811	     -5.83184623
      0.07000000	     -2.63231651	     -7.32709281	     11.52654136	      0.08684746	      0.97529058	      0.87880297	      7.12059754	      8.57859351	     -6.67136900	    -15.59960859	     10.22273648	      0.69738054	      4.52719092	     -6.30925858	      7.12532355	     -9.59680044	     11.15530058	     -3.10072275	      3.68758593	      6.43273259	     -5.83098758
      0.08000000	     -2.63365869	     -7.32527965	     11.52668431	      0.08687631	      0.97528623	      0.87883054	      7.12032061	      8.57886425	     -6.67135752	    -15.60005095	     10.22290082	      0.69748507	      4.52721590	     -6.30962675	      7.12531851	     -9.59714149	     11.15535231	     -3.10087383	      3.68701059	      6.43390835	     -5.83091041
      0.09000000	     -2.63505496	     -7.32288357	     11.51991419	      0.08688545	      0.97528152	      0.87882039	      7.12157400	      8.57441028	     -6.67036919	    -15.60278780	     10.22607536	      0.69873893	      4.52860796	     -6.30509944	      7.12530940	     -9.60195811	     11.15598036	     -3.10311463	      3.68343414	      6.44675042	     -5.83065588
      0.10000000	     -2.63641992	     -7.32264189	     11.50484253	      0.08686206	      0.97526296	      0.87885306	      7.14012050	      8.57521572	     -6.64944847	    -15.63415021	     10.25177936	      0.71789277	      4.54638239	     -6.30467226	      7.10136155	     -9.63367146	     11.16594755	     -3.13194510	      3.67288027	      6.45705109	     -5.81246752
      0.11000000	     -2.63991730	     -7.31994103	     11.49714929	      0.08688971	      0.97525513	      0.87886393	      7.13983665	      8.57243248	     -6.65020162	    -15.63221156	     10.25178328	      0.71945050	      4.54663912	     -6.30189679	      7.10137315	     -9.63467825	     11.16610119	     -3.13358020	      3.67413681	      6.46454234	     -5.81321059
      0.12000000	     -2.64314551	     -7.31750011	     11.49258002	      0.08690902	      0.97524599	      0.87887073	      7.14060918	      8.56987975	     -6.64922563	    -15.63108318	     10.25162950	      0.72116922	      4.54780290	     -6.29920144	      7.10063659	     -9.63538629	     11.16616554	     -3.13529386	      3.67376163	      6.47242884	     -5.81268784
      0.13000000	     -2.64629303	     -7.31518463	     11.48698033	      0.08692796	      0.97523724	      0.87887702	      7.14154418	      8.56736607	     -6.64730282	    -15.63058491	     10.25145067	      0.72319298	      4.54929481	     -6.29652451	      7.09999508	     -9.63709400	     11.16610361	     -3.13722610	      3.67317932	      6.48109578	     -5.81153309
      0.14000000	     -2.64945506	     -7.31305901	     11.48141526	      0.08694432	      0.97522859	      0.87888209	      7.14297679	      8.56501059	     -6.64423152	    -15.63058251	     10.25141680	      0.72550721	      4.55132260	     -6.29384576	      7.09917951	     -9.63939542	     11.16609035	     -3.13942454	      3.67203051	      6.49049639	     -5.80924033
      0.15000000	     -2.66629056	     -7.31954752	     11.45061484	      0.08692617	      0.97520011	      0.87893878	      7.17042600	      8.57430173	     -6.58801682	    -15.64666822	     10.25263879	      0.76291559	      4.57989843	     -6.29924559	      7.06896687	     -9.66426612	     11.17167201	     -3.17445306	      3.67937188	      6.50571565	     -5.76206505
      0.16000000	     -2.66968231	     -7.31667348	     11.44673871	      0.08694954	      0.97519147	      0.87893718	      7.17021290	      8.57072326	     -6.58883753	    -15.64521008	     10.25312333	      0.76411973	      4.58034061	     -6.29564414	      7.06809426	     -9.66348159	     11.17213069	     -3.17544925	      3.67942479	      6.51522524	     -5.76319149
      0.17000000	     -2.67270285	     -7.31422886	     11.44427175	      0.08696945	      0.97518479	      0.87893680	      7.17107135	      8.56770746	     -6.58846494	    -15.64422224	     10.25344461	      0.76549044	      4.58096633	     -6.29251469	      7.06737604	     -9.66308002	     11.17290697	     -3.17644559	      3.67843493	      6.52388829	     -5.76282854
      0.18000000	     -2.67570629	     -7.31175243	     11.44207678	      0.08698739	      0.97517834	      0.87893441	      7.17192975	      8.56474649	     -6.58731749	    -15.64388209	     10.25356361	      0.76692861	      4.58197447	     -6.28927845	      7.06690489	     -9.66283892	     11.17405427	     -3.17736513	      3.67698492	      6.53304807	     -5.76145690
      0.19000000	     -2.67871461	     -7.30945999	     11.43965826	      0.08700379	      0.97517241	      0.87893043	      7.17320830	      8.56176126	     -6.58554451	    -15.64379789	     10.25362752	      0.76847688	      4.58295918	     -6.28604156	      7.06647023	     -9.66279312	     11.17567552	     -3.17828310	      3.67535813	      6.54241004	     -5.75922219
      0.20000000	     -2.68182394	     -7.30735698	     11.43701716	      0.08701965	      0.97516662	      0.87892583	      7.17467221	      8.55893700	     -6.58329801	    -15.64394895	     10.25388455	      0.77001895	      4.58401762	     -6.28295812	      7.06585371	     -9.66264411	     11.17771815	     -3.17921018	      3.67381814	      6.55165043	     -5.75619082
      0.21000000	     -2.68498625	     -7.30568363	     11.43426902	      0.08703546	      0.97516175	      0.87892095	      7.17645832	      8.55633265	     -6.58061206	    -15.64410251	     10.25467797	      0.77146146	      4.58503050	     -6.28018331	      7.06479270	     -9.66220663	     11.18008101	     -3.18018724	      3.67270259	      6.56038684	     -5.75232817
      0.22000000	     -2.68843143	     -7.30426201	     11.43200223	      0.08705217	      0.97515613	      0.87891629	      7.17828542	      8.55405792	     -6.57763160	    -15.64408716	     10.25627559	      0.77262802	      4.58603775	     -6.27776836	      7.06313449	     -9.66113958	     11.18246175	     -3.18118697	      3.67221090	      6.56854834	     -5.74781271
      0.23000000	     -2.69232192	     -7.30320672	     11.43037992	      0.08707054	      0.97514963	      0.87890812	      7.18032094	      8.55190608	     -6.57402019	    -15.64362328	     10.25916133	      0.77351933	      4.58707436	     -6.27553815	      7.06066845	     -9.65907810	     11.18485788	     -3.18232598	      3.67282270	      6.57648516	     -5.74223133
      0.24000000	     -2.69408872	     -7.30205639	     11.43077507	      0.08709991	      0.97514524	      0.87892376	      7.18018660	      8.55211923	     -6.57384518	    -15.64374502	     10.25934289	      0.77354650	      4.58674341	     -6.27580564	      7.06052949	     -9.65917881	     11.18494277	     -3.18238518	      3.67238850	      6.57737888	     -5.74190978
      0.25000000	     -2.71173819	     -7.30457375	     11.42013747	      0.08714955	      0.97511936	      0.87891879	      7.18874526	      8.55256922	     -6.55545920	    -15.63358606	     10.28915105	      0.77288695	      4.59012924	     -6.27600141	      7.04919798	     -9.63993265	     11.19242079	     -3.18880227	      3.69427070	      6.58556564	     -5.71145562
      0.26000000	     -2.71411157	     -7.30339334	     11.42378738	      0.08716883	      0.97511433	      0.87890545	      7.18993329	      8.55044420	     -6.55262944	    -15.63448438	     10.28962528	      0.77272911	      4.59081133	     -6.27358243	      7.04788742	     -9.63846904	     11.19197583	     -3.18925791	      3.69308720	      6.59075529	     -5.71016197
      0.27000000	     -2.71676835	     -7.30245372	     11.42939096	      0.08719750	      0.97510831	      0.87889058	      7.19043255	      8.54836351	     -6.54990778	    -15.63476087	     10.29120120	      0.77226973	      4.59095821	     -6.27167477	      7.04685538	     -9.63585081	     11.19144021	     -3.18971237	      3.69427900	      6.59469690	     -5.70798504
      0.28000000	     -2.72018330	     -7.30157728	     11.43703382	      0.08723046	      0.97510075	      0.87887212	      7.19080237	      8.54644318	     -6.54755296	    -15.63381941	     10.29389069	      0.77158230	      4.59098470	     -6.26962087	      7.04631230	     -9.63113452	     11.19090388	     -3.19013167	      3.69676149	      6.59780365	     -5.70495919
      0.29000000	     -2.72445494	     -7.30074433	     11.44627575	      0.08726887	      0.97509251	      0.87885375	      7.19099971	      8.54434464	     -6.54597722	    -15.63162242	     10.29756873	      0.77079035	      4.59066589	     -6.26785390	      7.04675918	     -9.62401857	     11.19037442	     -3.19046507	      3.70081474	      6.59962907	     -5.70132961
